<?xml version="1.0" encoding="UTF-8"?>
<svg width="24px" height="24px" viewBox="0 0 24 24" version="1.1" xmlns="http://www.w3.org/2000/svg" xmlns:xlink="http://www.w3.org/1999/xlink">
    <!-- Generator: Sketch 61.2 (89653) - https://sketch.com -->
    <title>Icons / payment / ic_bank</title>
    <desc>Created with Sketch.</desc>
    <g id="Icons-/-payment-/-ic_bank" stroke="none" stroke-width="1" fill="none" fill-rule="evenodd">
        <rect id="Rectangle" x="0" y="0" width="24" height="24"></rect>
        <path d="M13.2803688,2.066974 L21.8781345,9.23177872 C22.3024114,9.5853428 22.3597354,10.2159075 22.0061713,10.6401844 C21.8161775,10.868177 21.5347299,11 21.2379501,11 L21,11 L21,20 C21.5522847,20 22,20.4477153 22,21 C22,21.5128358 21.6139598,21.9355072 21.1166211,21.9932723 L21,22 L3,22 C2.44771525,22 2,21.5522847 2,21 C2,20.4871642 2.38604019,20.0644928 2.88337887,20.0067277 L3,20 L3,11 L2.76204994,11 C2.20976519,11 1.76204994,10.5522847 1.76204994,10 C1.76204994,9.70322016 1.89387295,9.42177255 2.12186554,9.23177872 L10.7196312,2.066974 C11.4613231,1.44889741 12.5386769,1.44889741 13.2803688,2.066974 Z M19,11 L5,11 L5,20 L19,20 L19,11 Z M8,12 C8.51283584,12 8.93550716,12.3860402 8.99327227,12.8833789 L9,13 L9,18 C9,18.5522847 8.55228475,19 8,19 C7.48716416,19 7.06449284,18.6139598 7.00672773,18.1166211 L7,18 L7,13 C7,12.4477153 7.44771525,12 8,12 Z M12,12 C12.5128358,12 12.9355072,12.3860402 12.9932723,12.8833789 L13,13 L13,18 C13,18.5522847 12.5522847,19 12,19 C11.4871642,19 11.0644928,18.6139598 11.0067277,18.1166211 L11,18 L11,13 C11,12.4477153 11.4477153,12 12,12 Z M16,12 C16.5522847,12 17,12.4477153 17,13 L17,18 C17,18.5522847 16.5522847,19 16,19 C15.4477153,19 15,18.5522847 15,18 L15,13 C15,12.4477153 15.4477153,12 16,12 Z M12,3.60341656 L5.52304994,8.99941656 L18.4750499,8.99941656 L12,3.60341656 Z" id="Shape" fill="#25282B"></path>
    </g>
</svg>