<?xml version="1.0" encoding="UTF-8"?>
<svg width="24px" height="24px" viewBox="0 0 24 24" version="1.1" xmlns="http://www.w3.org/2000/svg" xmlns:xlink="http://www.w3.org/1999/xlink">
    <!-- Generator: Sketch 61.2 (89653) - https://sketch.com -->
    <title>Icons / payment / ic_transfer</title>
    <desc>Created with Sketch.</desc>
    <g id="Icons-/-payment-/-ic_transfer" stroke="none" stroke-width="1" fill="none" fill-rule="evenodd">
        <rect id="Rectangle" x="0" y="0" width="24" height="24"></rect>
        <path d="M19.8257794,14 C20.3780641,14 20.8257794,14.4477153 20.8257794,15 C20.8257794,15.2387113 20.7403872,15.4695483 20.585036,15.6507914 L16.8796283,19.973767 C16.6999172,20.1834299 16.3842672,20.2077107 16.1746043,20.0279996 C16.0637814,19.9330085 16,19.7943337 16,19.6483713 L16,16 L4,16 C3.44771525,16 3,15.5522847 3,15 C3,14.4477153 3.44771525,14 4,14 L19.8257794,14 Z M7.82539569,3.9720004 C7.93621864,4.0669915 8,4.20566626 8,4.3516287 L8,8 L20,8 C20.5522847,8 21,8.44771525 21,9 C21,9.55228475 20.5522847,10 20,10 L4.17422064,10 C3.62193589,10 3.17422064,9.55228475 3.17422064,9 C3.17422064,8.76128873 3.2596128,8.53045174 3.41496403,8.34920863 L7.1203717,4.02623302 C7.30008277,3.8165701 7.61573277,3.79228933 7.82539569,3.9720004 Z" id="Combined-Shape" fill="#25282B"></path>
    </g>
</svg>