<?xml version="1.0" encoding="UTF-8"?>
<svg width="24px" height="24px" viewBox="0 0 24 24" version="1.1" xmlns="http://www.w3.org/2000/svg" xmlns:xlink="http://www.w3.org/1999/xlink">
    <!-- Generator: Sketch 61.2 (89653) - https://sketch.com -->
    <title>ic_alamat_ktp</title>
    <desc>Created with Sketch.</desc>
    <g id="Symbols" stroke="none" stroke-width="1" fill="currentColor" fill-rule="evenodd">
        <g id="Icons-/-form-/-ic_alamat_ktp">
            <rect id="Rectangle" x="0" y="0" width="24" height="24"></rect>
            <path d="M13.2803688,2.066974 L21.8781345,9.23177872 C22.3024114,9.5853428 22.3597354,10.2159075 22.0061713,10.6401844 C21.8161775,10.868177 21.5347299,11 21.2379501,11 L21,11 L21,20 C21,21.1045695 20.1045695,22 19,22 L5,22 C3.8954305,22 3,21.1045695 3,20 L3,11 L2.76204994,11 C2.20976519,11 1.76204994,10.5522847 1.76204994,10 C1.76204994,9.70322016 1.89387295,9.42177255 2.12186554,9.23177872 L10.7196312,2.066974 C11.4613231,1.44889741 12.5386769,1.44889741 13.2803688,2.066974 Z M12,3.60341656 L5,9.43674989 L5,20 L19,20 L19,9.43674989 L12,3.60341656 Z M12,15 C12.5522847,15 13,15.4477153 13,16 C13,16.5128358 12.6139598,16.9355072 12.1166211,16.9932723 L12,17 L8,17 C7.44771525,17 7,16.5522847 7,16 C7,15.4871642 7.38604019,15.0644928 7.88337887,15.0067277 L8,15 L12,15 Z M16,11 C16.5522847,11 17,11.4477153 17,12 C17,12.5128358 16.6139598,12.9355072 16.1166211,12.9932723 L16,13 L8,13 C7.44771525,13 7,12.5522847 7,12 C7,11.4871642 7.38604019,11.0644928 7.88337887,11.0067277 L8,11 L16,11 Z" id="🎨-Color-Icon" fill="#25282B"></path>
        </g>
    </g>
</svg>