<svg id="Layer_1" data-name="Layer 1" xmlns="http://www.w3.org/2000/svg" viewBox="0 0 24 24"><title>ic_alamat_ktp</title><g id="Symbols" fill="currentColor"><rect id="Rectangle" width="24" height="24" /><path d="M13.28,2.07l8.6,7.16A1,1,0,0,1,21.24,11H21v9a2,2,0,0,1-2,2H5a2,2,0,0,1-2-2V11H2.76a1,1,0,0,1-1-1,1,1,0,0,1,.36-.77l8.6-7.16A2,2,0,0,1,13.28,2.07ZM12,3.6,5,9.44V20H19V9.44ZM12,15a1,1,0,0,1,.12,2H8a1,1,0,0,1-.12-2H12Zm4-4a1,1,0,0,1,.12,2H8a1,1,0,0,1-.12-2H16Z" style="fill:#25282b;fill-rule:evenodd"/></g></svg>