<?xml version="1.0" encoding="UTF-8"?>
<svg width="24px" height="24px" viewBox="0 0 24 24" version="1.1" xmlns="http://www.w3.org/2000/svg" xmlns:xlink="http://www.w3.org/1999/xlink">
    <title>ic_action_copy_neutral100_24</title>
    <g id="Symbols" stroke="none" stroke-width="1" fill="none" fill-rule="evenodd">
        <g id="01.-Tunaiku-/-02.-Visual-Assets-/-Icon-/-System-Icon-/-Action-/-Copy" fill="#25282B">
            <path d="M19,5 C20.1045695,5 21,5.8954305 21,7 L21,21 C21,22.1045695 20.1045695,23 19,23 L9,23 C7.8954305,23 7,22.1045695 7,21 L7,7 C7,5.8954305 7.8954305,5 9,5 L19,5 Z M19,7 L9,7 L9,21 L19,21 L19,7 Z M15,1 C15.5522847,1 16,1.44771525 16,2 C16,2.55228475 15.5522847,3 15,3 L5,3 L5,17 C5,17.5522847 4.55228475,18 4,18 C3.44771525,18 3,17.5522847 3,17 L3,3 C3,1.8954305 3.8954305,1 5,1 L15,1 Z" id="🎨-Color-Icon"></path>
        </g>
    </g>
</svg>