<?xml version="1.0" encoding="UTF-8"?>
<svg width="24px" height="24px" viewBox="0 0 24 24" version="1.1" xmlns="http://www.w3.org/2000/svg" xmlns:xlink="http://www.w3.org/1999/xlink">
    <!-- Generator: Sketch 61.2 (89653) - https://sketch.com -->
    <title>Icons / navigational / ic_back</title>
    <desc>Created with Sketch.</desc>
    <g id="Icons-/-navigational-/-ic_back" stroke="none" stroke-width="1" fill="none" fill-rule="evenodd">
        <rect id="Rectangle" x="0" y="0" width="24" height="24"></rect>
        <path d="M12.3947301,4.8525382 L12.4819509,4.93024456 C12.8724752,5.32076885 12.8724752,5.95393383 12.4819509,6.34445813 L7.82666956,10.9993513 L19,11 C19.5522847,11 20,11.4477153 20,12 C20,12.5128358 19.6139598,12.9355072 19.1166211,12.9932723 L19,13 L7.82566956,12.9993513 L12.4879417,17.6615068 C12.8784659,18.0520311 12.8784659,18.6851961 12.4879417,19.0757204 L12.4007208,19.1534268 C12.0082032,19.4642522 11.4363578,19.4383501 11.0737281,19.0757204 L11.0624144,19.0629925 L5.41166956,13.4143513 L5.41088312,13.4155259 L3.99666956,12.0013124 L11.0564237,4.94297249 L11.0677374,4.93024456 C11.4303671,4.56761486 12.0022125,4.54171274 12.3947301,4.8525382 Z" id="Path" fill="#25282B"></path>
    </g>
</svg>