<?xml version="1.0" encoding="UTF-8"?>
<svg width="24px" height="24px" viewBox="0 0 24 24" version="1.1" xmlns="http://www.w3.org/2000/svg" xmlns:xlink="http://www.w3.org/1999/xlink">
    <!-- Generator: Sketch 61.2 (89653) - https://sketch.com -->
    <title>Icons / navigational / ic_bantuan / inactive</title>
    <desc>Created with Sketch.</desc>
    <g id="Icons-/-navigational-/-ic_bantuan-/-inactive" stroke="none" stroke-width="1" fill="none" fill-rule="evenodd">
        <rect id="Rectangle" x="0" y="0" width="24" height="24"></rect>
        <path d="M20,2 C21.1045695,2 22,2.8954305 22,4 L22,18 C22,19.1045695 21.1045695,20 20,20 L15.4142136,20 C15.1489971,20 14.8946432,20.1053568 14.7071068,20.2928932 L12.7071068,22.2928932 C12.3165825,22.6834175 11.6834175,22.6834175 11.2928932,22.2928932 L9.29289322,20.2928932 C9.10535684,20.1053568 8.85100293,20 8.58578644,20 L4,20 C2.8954305,20 2,19.1045695 2,18 L2,4 C2,2.8954305 2.8954305,2 4,2 L20,2 Z M20,4 L4,4 L4,18 L8.58578644,18 C9.38143591,18 10.1444976,18.3160705 10.7071068,18.8786797 L12,20.1715729 L13.2928932,18.8786797 C13.8555024,18.3160705 14.6185641,18 15.4142136,18 L20,18 L20,4 Z M12,16 C12.553,16 13,16.448 13,17 C13,17.552 12.553,18 12,18 C11.448,18 11,17.552 11,17 C11,16.448 11.448,16 12,16 Z M12,5 C14.209139,5 16,6.790861 16,9 C16,10.2024955 15.5236344,10.8905792 14.2071068,12.2071068 C13.2736344,13.1405792 13,13.5358288 13,14 C13,14.5522847 12.5522847,15 12,15 C11.4477153,15 11,14.5522847 11,14 C11,12.7975045 11.4763656,12.1094208 12.7928932,10.7928932 C13.7263656,9.85942081 14,9.46417116 14,9 C14,7.8954305 13.1045695,7 12,7 C10.8954305,7 10,7.8954305 10,9 C10,9.55228475 9.55228475,10 9,10 C8.44771525,10 8,9.55228475 8,9 C8,6.790861 9.790861,5 12,5 Z" id="Shape" fill="#25282B"></path>
    </g>
</svg>