
<?xml version="1.0" encoding="UTF-8"?>
<svg width="24px" height="24px" viewBox="0 0 24 24" version="1.1" xmlns="http://www.w3.org/2000/svg" xmlns:xlink="http://www.w3.org/1999/xlink">
    <!-- Generator: Sketch 61.2 (89653) - https://sketch.com -->
    <title>Icons / form / ic_data_ktp</title>
    <desc>Created with Sketch.</desc>
    <g id="Icons-/-form-/-ic_data_ktp" stroke="none" stroke-width="1" fill="none" fill-rule="evenodd">
        <rect id="Rectangle" x="0" y="0" width="24" height="24"></rect>
        <path d="M20,4 C21.1045695,4 22,4.8954305 22,6 L22,18 C22,19.1045695 21.1045695,20 20,20 L4,20 C2.8954305,20 2,19.1045695 2,18 L2,6 C2,4.8954305 2.8954305,4 4,4 L20,4 Z M4,6 L4,18 L20,18 L20,6 L4,6 Z M11,13 C11.5522847,13 12,13.4477153 12,14 C12,14.5522847 11.5522847,15 11,15 L7,15 C6.44771525,15 6,14.5522847 6,14 C6,13.4477153 6.44771525,13 7,13 L11,13 Z M18,9 L18,13 L15,13 L15,9 L18,9 Z M7,9 L12,9 C12.5522847,9 13,9.44771525 13,10 C13,10.5128358 12.6139598,10.9355072 12.1166211,10.9932723 L12,11 L7,11 C6.44771525,11 6,10.5522847 6,10 C6,9.48716416 6.38604019,9.06449284 6.88337887,9.00672773 L7,9 L12,9 L7,9 Z" id="Shape" fill="currentColor"></path>
    </g>
</svg>
