<?xml version="1.0" encoding="UTF-8"?>
<svg width="24px" height="24px" viewBox="0 0 24 24" version="1.1" xmlns="http://www.w3.org/2000/svg" xmlns:xlink="http://www.w3.org/1999/xlink">
    <!-- Generator: Sketch 61.2 (89653) - https://sketch.com -->
    <title>Icons / form / ic_kantor</title>
    <desc>Created with Sketch.</desc>
    <g id="Icons-/-form-/-ic_kantor" stroke="none" stroke-width="1" fill="none" fill-rule="evenodd">
        <rect id="Rectangle" x="0" y="0" width="24" height="24"></rect>
        <path d="M4,22 C2.8954305,22 2,21.1045695 2,20 L2,4 C2,2.8954305 2.8954305,2 4,2 L16,2 C17.1045695,2 18,2.8954305 18,4 L18,7 L20,7 C21.1045695,7 22,7.8954305 22,9 L22,20 C22,21.1045695 21.1045695,22 20,22 L4,22 Z M16,4 L4,4 L4,20 L11,20 L11,16 L13,16 L13,20 L16,20 L16,4 Z M20,9 L18,9 L18,20 L20,20 L20,9 Z M9,14 L9,16 L7,16 L7,14 L9,14 Z M9,10 L9,12 L7,12 L7,10 L9,10 Z M13,10 L13,12 L11,12 L11,10 L13,10 Z M9,6 L9,8 L7,8 L7,6 L9,6 Z M13,6 L13,8 L11,8 L11,6 L13,6 Z" id="Shape" fill="#25282B"></path>
    </g>
</svg>