<?xml version="1.0" encoding="UTF-8"?>
<svg width="24px" height="24px" viewBox="0 0 24 24" version="1.1" xmlns="http://www.w3.org/2000/svg" xmlns:xlink="http://www.w3.org/1999/xlink">
    <!-- Generator: Sketch 61.2 (89653) - https://sketch.com -->
    <title>Icons / navigational / ic_pinjamanku / inactive</title>
    <desc>Created with Sketch.</desc>
    <g id="Icons-/-navigational-/-ic_pinjamanku-/-inactive" stroke="none" stroke-width="1" fill="none" fill-rule="evenodd">
        <path d="M13.2803688,2.066974 L21.8781345,9.23177872 C22.3024114,9.5853428 22.3597354,10.2159075 22.0061713,10.6401844 C21.8161775,10.868177 21.5347299,11 21.2379501,11 L21,11 L21,20 C21,21.1045695 20.1045695,22 19,22 L13,22 L13,15 L11,15 L11,22 L5,22 C3.8954305,22 3,21.1045695 3,20 L3,11 L2.76204994,11 C2.20976519,11 1.76204994,10.5522847 1.76204994,10 C1.76204994,9.70322016 1.89387295,9.42177255 2.12186554,9.23177872 L10.7196312,2.066974 C11.4613231,1.44889741 12.5386769,1.44889741 13.2803688,2.066974 Z M19,9.43674989 L12,3.60341656 L5,9.43674989 L5,20 L9,20 L9,13 L15,13 L15,20 L19,20 L19,9.43674989 Z" id="outlined" fill="#25282B"></path>
    </g>
</svg>