<?xml version="1.0" encoding="UTF-8"?>
<svg width="24px" height="24px" viewBox="0 0 24 24" version="1.1" xmlns="http://www.w3.org/2000/svg" xmlns:xlink="http://www.w3.org/1999/xlink">
    <!-- Generator: Sketch 61.2 (89653) - https://sketch.com -->
    <title>Icons / navigational / ic_riwayat / inactive</title>
    <desc>Created with Sketch.</desc>
    <g id="Icons-/-navigational-/-ic_riwayat-/-inactive" stroke="none" stroke-width="1" fill="none" fill-rule="evenodd">
        <path d="M17,12 C19.7614237,12 22,14.2385763 22,17 C22,19.7614237 19.7614237,22 17,22 C14.2385763,22 12,19.7614237 12,17 C12,14.2385763 14.2385763,12 17,12 Z M17,2 C18.0543618,2 18.9181651,2.81587779 18.9945143,3.85073766 L19,4 L19,9 C19,9.55228475 18.5522847,10 18,10 C17.4477153,10 17,9.55228475 17,9 L17,4 L4,4 L4,20 L10,20 C10.5522847,20 11,20.4477153 11,21 C11,21.5128358 10.6139598,21.9355072 10.1166211,21.9932723 L10,22 L4,22 C2.9456382,22 2.08183488,21.1841222 2.00548574,20.1492623 L2,20 L2,4 C2,2.9456382 2.81587779,2.08183488 3.85073766,2.00548574 L4,2 L17,2 Z M17,13.5 C15.0670034,13.5 13.5,15.0670034 13.5,17 C13.5,18.9329966 15.0670034,20.5 17,20.5 C18.9329966,20.5 20.5,18.9329966 20.5,17 C20.5,15.0670034 18.9329966,13.5 17,13.5 Z M17,14.25 C17.3796958,14.25 17.693491,14.5321539 17.7431534,14.8982294 L17.75,15 L17.75,16.6893398 L18.5303301,17.4696699 C18.8232233,17.7625631 18.8232233,18.2374369 18.5303301,18.5303301 C18.2640635,18.7965966 17.8473998,18.8208027 17.5537883,18.6029482 L17.4696699,18.5303301 L16.25,17.3106602 L16.25,15 C16.25,14.5857864 16.5857864,14.25 17,14.25 Z M7,16 L9,16 C9.55228475,16 10,16.4477153 10,17 C10,17.5128358 9.61395981,17.9355072 9.11662113,17.9932723 L9,18 L7,18 C6.44771525,18 6,17.5522847 6,17 C6,16.4871642 6.38604019,16.0644928 6.88337887,16.0067277 L7,16 L9,16 L7,16 Z M11,11 C11.5522847,11 12,11.4477153 12,12 C12,12.5128358 11.6139598,12.9355072 11.1166211,12.9932723 L11,13 L7,13 C6.44771525,13 6,12.5522847 6,12 C6,11.4871642 6.38604019,11.0644928 6.88337887,11.0067277 L7,11 L11,11 Z M14,6 C14.5522847,6 15,6.44771525 15,7 C15,7.51283584 14.6139598,7.93550716 14.1166211,7.99327227 L14,8 L7,8 C6.44771525,8 6,7.55228475 6,7 C6,6.48716416 6.38604019,6.06449284 6.88337887,6.00672773 L7,6 L14,6 Z" id="Shape" fill="#25282B"></path>
    </g>
</svg>