<?xml version="1.0" encoding="UTF-8"?>
<svg width="24px" height="24px" viewBox="0 0 24 24" version="1.1" xmlns="http://www.w3.org/2000/svg" xmlns:xlink="http://www.w3.org/1999/xlink">
    <!-- Generator: Sketch 61.2 (89653) - https://sketch.com -->
    <title>Icons / form / ic_status_pernikahan</title>
    <desc>Created with Sketch.</desc>
    <g id="Icons-/-form-/-ic_status_pernikahan" stroke="none" stroke-width="1" fill="none" fill-rule="evenodd">
        <rect id="Rectangle" x="0" y="0" width="24" height="24"></rect>
        <path d="M9.61257411,3 C10.1648589,3 10.6125741,3.44771525 10.6125741,4 C10.6125741,4.1074821 10.5952462,4.2142613 10.5612574,4.31622777 L10.2989021,5.10491221 C10.8909511,5.20157795 11.4611596,5.36323241 12.0019648,5.58231269 C12.9271796,5.20635459 13.9394915,5 15,5 C19.418278,5 23,8.581722 23,13 C23,17.418278 19.418278,21 15,21 C13.9383495,21 12.9249996,20.7932008 11.9980352,20.4176873 C11.0728204,20.7936454 10.0605085,21 9,21 C4.581722,21 1,17.418278 1,13 C1,9.02400324 3.9005332,5.72546232 7.70105812,5.1049187 L7.43874259,4.31622777 C7.26409482,3.79228445 7.5472548,3.22596447 8.07119812,3.0513167 C8.17316459,3.01732788 8.27994379,3 8.38742589,3 L9.61257411,3 Z M13.562,18.826 L13.6056754,18.8371455 L13.663,18.85 L13.562,18.826 Z M10.336,7.149 L10.437,7.173 L10.3943246,7.16285453 L10.336,7.149 Z M12.8389258,18.5990307 L12.7942794,18.5813348 L12.898,18.62 L13.049,18.674 L13.146,18.707 L13.205,18.726 L13.245,18.738 L13.2210604,18.7318095 L13.1820832,18.7196602 C13.2639999,18.7456731 13.3466788,18.769975 13.4300779,18.7925237 L13.3560561,18.7719443 L13.448,18.796 L13.474,18.803 L13.676,18.852 L13.747,18.868 L13.804,18.88 L13.819,18.883 L13.808,18.881 L13.818672,18.8837308 L13.854,18.89 L13.931631,18.9051631 L14.0810042,18.9300605 C14.3807695,18.9761243 14.6875965,19 15,19 C18.3137085,19 21,16.3137085 21,13 C21,9.6862915 18.3137085,7 15,7 C14.7743083,7 14.551527,7.01246108 14.3323066,7.03673277 C15.9699736,8.50185313 17,10.6306388 17,13 C17,14.4049839 16.6378166,15.7253754 16.001722,16.8729023 C15.6816145,16.9560857 15.3459356,17 15,17 C14.5325043,17 14.0837402,16.9198006 13.6667154,16.7724096 C14.5003652,15.7415137 15,14.4291048 15,13 C15,10.8159649 13.8330728,8.90448017 12.0886939,7.85502155 L11.999037,7.80325037 C11.8287179,7.70445641 11.6530376,7.6138501 11.4725424,7.53195605 C11.4612102,7.52639142 11.4495697,7.52116409 11.4379096,7.51597284 L11.454,7.523 L11.396,7.498 L11.241,7.433 L11.334,7.471 L11.3003646,7.45679303 C11.2542226,7.43762296 11.2077896,7.41901222 11.1610742,7.4009693 L11.2057206,7.41866515 L11.101,7.379 L10.95,7.325 L10.853,7.292 L10.794,7.273 L10.754,7.261 L10.778,7.268 L10.6944753,7.24260898 C10.6531411,7.23046332 10.6116216,7.21875067 10.5699221,7.2074763 L10.6439439,7.22805571 L10.542,7.2 L10.323,7.147 L10.252,7.131 L10.195,7.119 L10.18,7.116 L10.191,7.118 L10.181328,7.11626919 L10.145,7.109 L10.068369,7.09483686 L10.0560945,7.0926468 C9.92822031,7.06993705 9.79894231,7.05128011 9.66840129,7.03681119 L9.44778703,7.01645721 C9.29994991,7.00555019 9.15062311,7 9,7 C5.6862915,7 3,9.6862915 3,13 C3,16.3137085 5.6862915,19 9,19 C9.22569172,19 9.448473,18.9875389 9.66769335,18.9632672 C8.03002638,17.4981469 7,15.3693612 7,13 C7,11.5950161 7.36218338,10.2746246 7.99827801,9.12709769 C8.31838553,9.04391434 8.65406439,9 9,9 C9.46749568,9 9.91625979,9.08019938 10.3332846,9.22759038 C9.49963484,10.2584863 9,11.5708952 9,13 C9,15.1840351 10.1669272,17.0955198 11.9113061,18.1449784 L12.000963,18.1967496 C12.1712821,18.2955436 12.3469624,18.3861499 12.5274576,18.4680439 L12.603,18.501 L12.777,18.574 L12.665,18.528 L12.6996354,18.543207 C12.7457774,18.562377 12.7922104,18.5809878 12.8389258,18.5990307 Z" id="Shape" fill="#25282B"></path>
    </g>
</svg>