<?xml version="1.0" encoding="UTF-8"?>
<svg width="24px" height="24px" viewBox="0 0 24 24" version="1.1" xmlns="http://www.w3.org/2000/svg" xmlns:xlink="http://www.w3.org/1999/xlink">
    <!-- Generator: Sketch 61.2 (89653) - https://sketch.com -->
    <title>Icons / form / ic_tempat_tinggal</title>
    <desc>Created with Sketch.</desc>
    <g id="Icons-/-form-/-ic_tempat_tinggal" stroke="none" stroke-width="1" fill="none" fill-rule="evenodd">
        <rect id="Rectangle" x="0" y="0" width="24" height="24"></rect>
        <path d="M2,5 C2.51283584,5 2.93550716,5.38604019 2.99327227,5.88337887 L3,6 L3,15 L11,15 L11,7 L20,7 C21.5976809,7 22.9036609,8.24891996 22.9949073,9.82372721 L23,10 L23,19 C23,19.5522847 22.5522847,20 22,20 C21.4871642,20 21.0644928,19.6139598 21.0067277,19.1166211 L21,19 L21,17 L3,17 L3,19 C3,19.5522847 2.55228475,20 2,20 C1.48716416,20 1.06449284,19.6139598 1.00672773,19.1166211 L1,19 L1,6 C1,5.44771525 1.44771525,5 2,5 Z M20,9 L13,9 L13,15 L21,15 L21,10 C21,9.48716416 20.6139598,9.06449284 20.1166211,9.00672773 L20,9 Z M7,8 C8.65685425,8 10,9.34314575 10,11 C10,12.6568542 8.65685425,14 7,14 C5.34314575,14 4,12.6568542 4,11 C4,9.34314575 5.34314575,8 7,8 Z M7,10 C6.44771525,10 6,10.4477153 6,11 C6,11.5522847 6.44771525,12 7,12 C7.55228475,12 8,11.5522847 8,11 C8,10.4477153 7.55228475,10 7,10 Z" id="Shape" fill="#25282B"></path>
    </g>
</svg>