<?xml version="1.0" encoding="UTF-8"?>
<svg width="24px" height="24px" viewBox="0 0 24 24" version="1.1" xmlns="http://www.w3.org/2000/svg" xmlns:xlink="http://www.w3.org/1999/xlink">
    <!-- Generator: Sketch 61.2 (89653) - https://sketch.com -->
    <title>Icons / payment / ic_minimart</title>
    <desc>Created with Sketch.</desc>
    <g id="Icons-/-payment-/-ic_minimart" stroke="none" stroke-width="1" fill="none" fill-rule="evenodd">
        <rect id="Rectangle" x="0" y="0" width="24" height="24"></rect>
        <path d="M17.7002538,3 C18.4906313,3 19.2068742,3.46546704 19.5278769,4.18772307 L22.0455182,9.85241592 C22.5338359,10.9510865 22.0660401,12.2324265 21.0008322,12.7638458 L21,18 C21,19.6568542 19.6568542,21 18,21 L18,21 L6,21 C4.34314575,21 3,19.6568542 3,18 L3,18 L2.9998806,12.8243342 C2.02286391,12.4832259 1.45840531,11.4414664 1.72793339,10.4244017 C1.75513089,10.3217719 1.79045745,10.2214707 1.83357814,10.1244492 L4.47212308,4.18772307 C4.79312576,3.46546704 5.50936875,3 6.29974618,3 L17.7002538,3 Z M5,17 L5,18 C5,18.5522847 5.44771525,19 6,19 L6,19 L18,19 C18.5522847,19 19,18.5522847 19,18 L19,18 L19,17 L5,17 Z M17.7002538,5 L6.29974618,5 L3.66120032,10.9367261 C3.83249045,10.9821216 3.94954043,11 4,11 C4.07759217,11 4.26555358,10.9060193 4.58578644,10.5857864 C5.36683502,9.80473785 6.63316498,9.80473785 7.41421356,10.5857864 C7.73444642,10.9060193 7.92240783,11 8,11 C8.07759217,11 8.26555358,10.9060193 8.58578644,10.5857864 C9.36683502,9.80473785 10.633165,9.80473785 11.4142136,10.5857864 C11.7344464,10.9060193 11.9224078,11 12,11 C12.0775922,11 12.2655536,10.9060193 12.5857864,10.5857864 C13.366835,9.80473785 14.633165,9.80473785 15.4142136,10.5857864 C15.7344464,10.9060193 15.9224078,11 16,11 C16.0775922,11 16.2655536,10.9060193 16.5857864,10.5857864 C17.2895703,9.88200253 18.4037594,9.80281955 19.2,10.4 C19.5556372,10.6667279 19.847463,10.8543302 20.0610939,10.9611456 L20.0915649,10.9766671 L20.0915649,10.9766671 L20.0957069,10.979 L20.0968498,10.9794471 C20.2171949,10.9259603 20.2713901,10.7850518 20.2178951,10.6646929 L17.7002538,5 Z M5,15 L19,15 L19.0008792,12.6627623 C18.7063182,12.5004396 18.3726918,12.2795188 18,12 C17.3333333,12.6666667 16.6666667,13 16,13 C15.3333333,13 14.6666667,12.6666667 14,12 C13.3333333,12.6666667 12.6666667,13 12,13 C11.3333333,13 10.6666667,12.6666667 10,12 C9.33333333,12.6666667 8.66666667,13 8,13 C7.33333333,13 6.66666667,12.6666667 6,12 C5.66666667,12.3333333 5.33333333,12.5833333 5,12.75 L5,15 Z" id="Combined-Shape" fill="#25282B"></path>
    </g>
</svg>