<?xml version="1.0" encoding="UTF-8"?>
<svg width="24px" height="24px" viewBox="0 0 24 24" version="1.1" xmlns="http://www.w3.org/2000/svg" xmlns:xlink="http://www.w3.org/1999/xlink">
    <!-- Generator: Sketch 61.2 (89653) - https://sketch.com -->
    <title>Icons / payment / ic_autodebet</title>
    <desc>Created with Sketch.</desc>
    <g id="Icons-/-payment-/-ic_autodebet" stroke="none" stroke-width="1" fill="none" fill-rule="evenodd">
        <rect id="Rectangle" x="0" y="0" width="24" height="24"></rect>
        <path d="M8.59,13 C9.48,13 9.92,14.08 9.29,14.71 L7.38,16.62 C8.77,17.78 10.55,18.5 12.5,18.5 C15.66,18.5 18.39,16.66 19.69,14 C19.96,13.44 20.6,13.16 21.19,13.36 C21.9,13.6 22.26,14.4 21.94,15.07 C20.24,18.58 16.66,21 12.5,21 C9.85,21 7.45,20.01 5.6,18.4 L3.71,20.3 C3.08,20.93 2,20.48 2,19.59 L2,14 C2,13.45 2.45,13 3,13 L8.59,13 Z M6.17157288,15 L4,15 L4,17.172546 L5.50157469,15.6630265 L5.50530234,15.6662705 L6.17157288,15 Z M11.5576567,3 C14.2076567,3 16.6076567,3.99 18.4576567,5.6 L20.3476567,3.7 C20.9776567,3.07 22.0576567,3.52 22.0576567,4.41 L22.0576567,10 C22.0576567,10.55 21.6076567,11 21.0576567,11 L15.4676567,11 C14.5776567,11 14.1376567,9.92 14.7676567,9.29 L16.6776567,7.38 C15.2876567,6.22 13.5076567,5.5 11.5576567,5.5 C8.39765674,5.5 5.66765674,7.34 4.36765674,10 C4.09765674,10.56 3.45765674,10.84 2.86765674,10.64 C2.15765674,10.4 1.79765674,9.6 2.11765674,8.93 C3.81765674,5.42 7.39765674,3 11.5576567,3 Z M20.0576567,6.827454 L18.556082,8.33697353 L17.8860839,9 L20.0576567,9 L20.0576567,6.827454 Z" id="Shape" fill="#25282B" transform="translate(12.028828, 12.000000) rotate(-180.000000) translate(-12.028828, -12.000000) "></path>
    </g>
</svg>