<svg id="Layer_1" data-name="Layer 1" xmlns="http://www.w3.org/2000/svg" viewBox="0 0 20 20"><title>tes_icon_1</title><g id="Icons"><g id="Icon-Size"><path d="M15,10a5,5,0,1,1-5,5A5,5,0,0,1,15,10ZM15,0a2,2,0,0,1,2,1.85V7a1,1,0,0,1-2,0V2H2V18H8a1,1,0,0,1,.12,2H2a2,2,0,0,1-2-1.85V2A2,2,0,0,1,1.85,0H15Zm0,11.5A3.5,3.5,0,1,0,18.5,15,3.5,3.5,0,0,0,15,11.5Zm0,.75a.75.75,0,0,1,.74.65v1.79l.78.78a.75.75,0,0,1-1,1.13l-.08-.07-1.22-1.22V13A.76.76,0,0,1,15,12.25ZM5,14H7a1,1,0,0,1,.12,2H5a1,1,0,0,1-.12-2ZM9,9a1,1,0,0,1,.12,2H5a1,1,0,0,1-.12-2H9Zm3-5a1,1,0,0,1,.12,2H5a1,1,0,0,1-.12-2H12Z" transform="translate(0 0)" style="fill:none;fill-rule:evenodd"/></g></g></svg>